<svg width="1917" height="747" viewBox="0 0 1917 747" fill="none" xmlns="http://www.w3.org/2000/svg">
<path d="M3 0H1917V709H3V0Z" fill="url(#paint0_linear)"/>
<path d="M124.09 75.0315C124.09 75.0315 163.456 181.454 5.99072 215.809V327.915H1917V207.544C1917 207.544 1917 223.3 1881.12 223.3C1836.27 223.3 1750.57 130.568 1750.57 130.568C1750.57 130.568 1786.44 223.3 1714.69 223.3C1642.93 223.3 1580.64 111.195 1580.64 111.195C1574 167.42 1546.76 238.817 1485.96 223.3C1381.52 196.643 1421.68 168.883 1409.22 130.568C1411.55 180.593 1318.03 223.3 1244.78 215.809C1119.71 203.019 1085.82 87.9469 1085.82 87.9469C1085.82 87.9469 1016.06 246.29 958.755 232.341C912.91 221.182 788.832 87.9469 788.832 87.9469C788.832 87.9469 846.137 215.809 733.52 236.991C677.759 247.478 665.75 130.568 665.75 130.568C665.75 130.568 667.245 223.3 569.078 232.341C507.228 238.037 399.155 82.2641 399.155 82.2641C399.155 82.2641 410.118 223.3 281.555 207.544C232.576 201.541 124.09 75.0315 124.09 75.0315Z" fill="url(#paint1_linear)"/>
<path d="M1917 478.514C1917 478.514 1648.84 572.295 1544.67 550.258C1437.43 527.571 1274.48 362.244 1161.87 448.661C1067.38 521.173 1175.1 631.025 1048.22 602.907C885.7 566.887 659.856 511.182 523.369 511.182C360.348 511.182 2.99978 591.39 2.99978 591.39V741.522C2.99978 741.522 367.608 500.198 523.369 511.182C750.876 527.226 765.579 738.882 993.894 741.522C1203.57 743.946 1172 522.554 1381.68 524.756C1544.51 526.466 1917 741.522 1917 741.522V478.514Z" fill="url(#paint2_linear)"/>
<path d="M228.2 185L182.4 325H147.6L116.8 230.2L85 325H50.4L4.4 185H38L69.6 283.4L102.6 185H132.6L164.6 284.2L197.2 185H228.2ZM341.48 271.6C341.48 272 341.28 274.8 340.88 280H259.48C260.946 286.667 264.413 291.933 269.88 295.8C275.346 299.667 282.146 301.6 290.28 301.6C295.88 301.6 300.813 300.8 305.08 299.2C309.48 297.467 313.546 294.8 317.28 291.2L333.88 309.2C323.746 320.8 308.946 326.6 289.48 326.6C277.346 326.6 266.613 324.267 257.28 319.6C247.946 314.8 240.746 308.2 235.68 299.8C230.613 291.4 228.08 281.867 228.08 271.2C228.08 260.667 230.546 251.2 235.48 242.8C240.546 234.267 247.413 227.667 256.08 223C264.88 218.2 274.68 215.8 285.48 215.8C296.013 215.8 305.546 218.067 314.08 222.6C322.613 227.133 329.28 233.667 334.08 242.2C339.013 250.6 341.48 260.4 341.48 271.6ZM285.68 239.4C278.613 239.4 272.68 241.4 267.88 245.4C263.08 249.4 260.146 254.867 259.08 261.8H312.08C311.013 255 308.08 249.6 303.28 245.6C298.48 241.467 292.613 239.4 285.68 239.4ZM425.852 215.8C435.852 215.8 444.918 218.133 453.052 222.8C461.318 227.333 467.785 233.8 472.452 242.2C477.118 250.467 479.452 260.133 479.452 271.2C479.452 282.267 477.118 292 472.452 300.4C467.785 308.667 461.318 315.133 453.052 319.8C444.918 324.333 435.852 326.6 425.852 326.6C411.052 326.6 399.785 321.933 392.052 312.6V325H362.252V176.6H393.452V228.8C401.318 220.133 412.118 215.8 425.852 215.8ZM420.452 301C428.452 301 434.985 298.333 440.052 293C445.252 287.533 447.852 280.267 447.852 271.2C447.852 262.133 445.252 254.933 440.052 249.6C434.985 244.133 428.452 241.4 420.452 241.4C412.452 241.4 405.852 244.133 400.652 249.6C395.585 254.933 393.052 262.133 393.052 271.2C393.052 280.267 395.585 287.533 400.652 293C405.852 298.333 412.452 301 420.452 301ZM642.738 325L642.538 205.2L583.938 306.4H578.938L520.338 205.6V325H510.338V185H518.938L581.538 293.2L644.138 185H652.538L652.738 325H642.738ZM733.548 219.8C746.482 219.8 756.415 223.133 763.348 229.8C770.282 236.333 773.748 246 773.748 258.8V325H764.148V306.4C760.815 312.533 755.948 317.333 749.548 320.8C743.148 324.133 735.482 325.8 726.548 325.8C714.948 325.8 705.748 323.067 698.948 317.6C692.282 312.133 688.948 304.933 688.948 296C688.948 287.333 692.015 280.333 698.148 275C704.415 269.533 714.348 266.8 727.948 266.8H763.748V258.4C763.748 248.667 761.082 241.267 755.748 236.2C750.548 231.133 742.882 228.6 732.748 228.6C725.815 228.6 719.148 229.8 712.748 232.2C706.482 234.6 701.148 237.8 696.748 241.8L691.748 234.6C696.948 229.933 703.215 226.333 710.548 223.8C717.882 221.133 725.548 219.8 733.548 219.8ZM727.948 317.6C736.615 317.6 743.948 315.6 749.948 311.6C756.082 307.6 760.682 301.8 763.748 294.2V274.6H728.148C717.882 274.6 710.415 276.467 705.748 280.2C701.215 283.933 698.948 289.067 698.948 295.6C698.948 302.4 701.482 307.8 706.548 311.8C711.615 315.667 718.748 317.6 727.948 317.6ZM824.55 243.4C827.75 235.8 832.75 230 839.55 226C846.35 221.867 854.617 219.8 864.35 219.8V229.6L861.95 229.4C850.35 229.4 841.283 233.067 834.75 240.4C828.217 247.6 824.95 257.667 824.95 270.6V325H814.95V220.6H824.55V243.4ZM935.141 256L903.741 288.2V325H893.541V185H903.741V275L991.141 185H1003.54L941.941 248.6L1007.74 325H995.341L935.141 256Z" fill="url(#paint3_linear)"/>
<path d="M22 529.5C-55 443.5 215 357.5 215 357.5C215 357.5 110.849 486.206 127.95 605.355C176.354 632.355 233.747 658.98 290.152 681.621C371.421 613.362 475.014 479.817 577.501 470.5C643.407 464.509 708.282 499.398 767.878 540.842C834.387 472.074 899.046 413.432 952.026 417.683C1034.43 424.296 1101.09 506.094 1168.5 583.926C1304.86 506.721 1469.88 394.05 1618 357.5C1717.18 333.027 1699.71 489.685 1683.09 611.557C1817.51 516.679 1915 398 1915 398C1915 398 1801.7 678.561 1686 744.813C1661.23 758.996 1671.97 693.054 1683.09 611.557C1589.34 677.726 1477.63 732.319 1368.5 727C1292.73 723.307 1230.3 655.284 1168.5 583.926C1080.21 633.909 1003.93 669.027 952.026 659C903.089 649.548 839.272 590.491 767.878 540.842C676.81 635.003 582.273 748.148 509.5 744.813C464.321 742.743 378.447 717.063 290.152 681.621C249.302 715.931 214.093 733.746 187.5 711C150.834 679.638 133.349 642.973 127.95 605.355C81.3143 579.341 43.0231 552.98 22 529.5Z" fill="url(#paint4_linear)"/>
<defs>
<linearGradient id="paint0_linear" x1="960" y1="0" x2="960" y2="709" gradientUnits="userSpaceOnUse">
<stop stop-color="#9FB693" stop-opacity="0"/>
<stop offset="0.384831" stop-color="#97A289"/>
<stop offset="0.697917" stop-color="#939F83"/>
<stop offset="1" stop-color="#464F41" stop-opacity="0"/>
</linearGradient>
<linearGradient id="paint1_linear" x1="1077.13" y1="350.147" x2="1075.2" y2="88.911" gradientUnits="userSpaceOnUse">
<stop stop-color="#939F83"/>
<stop offset="0.671875" stop-color="#B3BAAE"/>
</linearGradient>
<linearGradient id="paint2_linear" x1="1010.47" y1="534.382" x2="1010.94" y2="794.504" gradientUnits="userSpaceOnUse">
<stop stop-color="#9EAB8E"/>
<stop offset="1" stop-color="#C4C4C4" stop-opacity="0"/>
</linearGradient>
<linearGradient id="paint3_linear" x1="515" y1="131" x2="515" y2="342" gradientUnits="userSpaceOnUse">
<stop stop-color="#4D5748"/>
<stop offset="1" stop-color="#B3BAAE" stop-opacity="0"/>
</linearGradient>
<linearGradient id="paint4_linear" x1="965.981" y1="868.287" x2="987.073" y2="473.536" gradientUnits="userSpaceOnUse">
<stop stop-color="white"/>
<stop offset="1" stop-color="#C4C4C4" stop-opacity="0"/>
</linearGradient>
</defs>
</svg>
