<svg width="1452" height="1120" viewBox="0 0 1452 1120" fill="none" xmlns="http://www.w3.org/2000/svg">
<path d="M0.5 647.5C0.5 647.5 203.5 823.5 389.5 774.5C602 718.519 561.396 594.335 663.202 549.858C781.857 498.02 871.813 550.097 975.721 472.837C1108.83 373.867 1020.23 306 1095 268C1184 222.77 1514 472.837 1514 472.837C1514 472.837 1175 279.793 1125.5 306C1063 339.089 1111.46 445.81 1004 528C923.137 570.387 795.861 564.7 713.973 613.757C580.13 693.938 583.875 831.539 429.473 854.757C229.973 884.757 0.5 647.5 0.5 647.5Z" fill="url(#paint0_linear)" fill-opacity="0.8"/>
<defs>
<linearGradient id="paint0_linear" x1="896.631" y1="596.675" x2="821.317" y2="438.451" gradientUnits="userSpaceOnUse">
<stop stop-color="#A01C1C"/>
<stop offset="1" stop-color="#C26D6D"/>
</linearGradient>
</defs>
</svg>
