<svg width="1920" height="720" viewBox="0 0 1920 720" fill="none" xmlns="http://www.w3.org/2000/svg">
<path d="M0 4.5C0 4.5 157.5 44 285.5 44C413.5 44 609 4.5 739 4.5C900.677 4.5 1119.32 69.5 1281 69.5C1435.84 69.5 1534.66 32.9998 1689.5 32.9998C1779.13 32.9998 1919 32.9998 1919 32.9998V606C1750.72 606 1792.54 543 1650 543C1527.85 543 1321.41 647.5 1208 647.5C1078.19 647.5 1032.04 697 900.5 697C789.986 697 406.377 578.5 285.5 578.5C169.433 578.5 133.164 606 0 606V4.5Z" fill="url(#paint0_linear)"/>
<path d="M1919.5 76.7864C1919.5 76.7864 1778.21 129.825 1667.5 136.286C1556.59 142.759 1316.91 37.3134 1206 43.7864C1076.74 51.3308 1020.14 138.512 892.5 116.712C729 88.7864 661.807 0 524.5 0C360.5 0 317.5 26 199 76.7864C72.1582 131.148 0.5 298 0.5 298C0.5 298 249.127 136.286 376.5 136.286C616.11 136.286 733.217 221.867 972 238.5C1127.65 249.342 1364.47 130.431 1520.5 136.286C1672.26 141.982 1919.5 167.083 1919.5 167.083V76.7864Z" fill="url(#paint1_linear)" fill-opacity="0.6"/>
<path d="M0 540.5C0 540.5 141.286 593.538 252 600C362.909 606.473 602.591 501.027 713.5 507.5C842.764 515.044 899.365 602.225 1027 580.426C1190.5 552.5 1175.19 525 1312.5 525C1476.5 525 1540.18 611.5 1650 611.5C1788 611.5 1919 562.5 1919 562.5C1919 562.5 1583.87 720 1456.5 720C1216.89 720 1009.28 614.164 770.5 630.797C614.855 641.639 538.028 684.291 382 690.147C230.235 695.842 0 540.5 0 540.5Z" fill="url(#paint2_linear)" fill-opacity="0.8"/>
<defs>
<linearGradient id="paint0_linear" x1="959.5" y1="33" x2="959.5" y2="605.999" gradientUnits="userSpaceOnUse">
<stop stop-color="#A01C1C"/>
<stop offset="1" stop-color="#7A2828"/>
</linearGradient>
<linearGradient id="paint1_linear" x1="810" y1="379.5" x2="927.116" y2="-33.6917" gradientUnits="userSpaceOnUse">
<stop stop-color="#A01C1C"/>
<stop offset="1" stop-color="#DF9696"/>
</linearGradient>
<linearGradient id="paint2_linear" x1="799" y1="627.09" x2="803.543" y2="451.915" gradientUnits="userSpaceOnUse">
<stop stop-color="#A01C1C"/>
<stop offset="1" stop-color="#C26D6D"/>
</linearGradient>
</defs>
</svg>
