<svg width="1920" height="722" viewBox="0 0 1920 722" fill="none" xmlns="http://www.w3.org/2000/svg">
<path d="M0 4.5C0 4.5 157.5 44 285.5 44C413.5 44 609 4.5 739 4.5C900.677 4.5 1119.32 69.5 1281 69.5C1435.84 69.5 1534.66 32.9998 1689.5 32.9998C1779.13 32.9998 1919 32.9998 1919 32.9998V606C1750.72 606 1792.54 543 1650 543C1527.85 543 1321.41 647.5 1208 647.5C1078.19 647.5 1032.04 697 900.5 697C789.986 697 406.377 578.5 285.5 578.5C169.433 578.5 133.164 606 0 606V4.5Z" fill="url(#paint0_linear)"/>
<path d="M1919.5 76.7864C1919.5 76.7864 1778.21 129.825 1667.5 136.286C1556.59 142.759 1316.91 37.3134 1206 43.7864C1076.74 51.3307 1020.14 138.512 892.5 116.712C729 88.7864 661.807 0 524.5 0C360.5 0 317.5 26 199 76.7864C72.1582 131.148 0.5 298 0.5 298C0.5 298 249.127 136.286 376.5 136.286C616.11 136.286 733.217 221.867 972 238.5C1127.65 249.342 1364.47 130.431 1520.5 136.286C1672.26 141.982 1919.5 167.083 1919.5 167.083V76.7864Z" fill="url(#paint1_linear)" fill-opacity="0.6"/>
<path d="M-10 542.286C-10 542.286 131.286 595.325 242 601.786C352.909 608.259 592.591 502.813 703.5 509.286C832.764 516.831 889.365 604.012 1017 582.212C1180.5 554.286 1165.19 526.786 1302.5 526.786C1466.5 526.786 1530.18 613.286 1640 613.286C1778 613.286 1909 564.286 1909 564.286C1909 564.286 1573.87 721.786 1446.5 721.786C1206.89 721.786 999.283 615.95 760.5 632.583C604.855 643.425 528.028 686.078 372 691.933C220.235 697.629 -10 542.286 -10 542.286Z" fill="url(#paint2_linear)" fill-opacity="0.8"/>
<defs>
<linearGradient id="paint0_linear" x1="959.5" y1="33" x2="959.5" y2="605.999" gradientUnits="userSpaceOnUse">
<stop stop-color="#4B5546"/>
<stop offset="1" stop-color="#A5B293"/>
</linearGradient>
<linearGradient id="paint1_linear" x1="810" y1="379.5" x2="927.116" y2="-33.6917" gradientUnits="userSpaceOnUse">
<stop stop-color="#8E9A7F"/>
<stop offset="1" stop-color="#BCC9A7"/>
</linearGradient>
<linearGradient id="paint2_linear" x1="789" y1="628.876" x2="793.543" y2="453.702" gradientUnits="userSpaceOnUse">
<stop stop-color="#BDCAA7"/>
<stop offset="1" stop-color="#BDC9A7"/>
</linearGradient>
</defs>
</svg>
