<svg width="1914" height="806" viewBox="0 0 1914 806" fill="none" xmlns="http://www.w3.org/2000/svg">
<path d="M0 0H1914V743.188H0V0Z" fill="url(#paint0_linear)"/>
<path d="M121.09 75.0315C121.09 75.0315 160.456 181.454 2.99072 215.809V327.915H1914V207.544C1914 207.544 1914 223.3 1878.12 223.3C1833.27 223.3 1747.57 130.568 1747.57 130.568C1747.57 130.568 1783.44 223.3 1711.69 223.3C1639.93 223.3 1577.64 111.195 1577.64 111.195C1571 167.42 1543.76 238.817 1482.96 223.3C1378.52 196.643 1418.68 168.883 1406.22 130.568C1408.55 180.593 1315.03 223.3 1241.78 215.809C1116.71 203.019 1082.82 87.9469 1082.82 87.9469C1082.82 87.9469 1013.06 246.29 955.755 232.341C909.91 221.182 785.832 87.9469 785.832 87.9469C785.832 87.9469 843.137 215.809 730.52 236.991C674.759 247.478 662.75 130.568 662.75 130.568C662.75 130.568 664.245 223.3 566.078 232.341C504.228 238.037 396.155 82.2641 396.155 82.2641C396.155 82.2641 407.118 223.3 278.555 207.544C229.576 201.541 121.09 75.0315 121.09 75.0315Z" fill="url(#paint1_linear)"/>
<path d="M1914 478.514C1914 478.514 1645.84 572.295 1541.67 550.258C1434.43 527.571 1271.48 362.244 1158.87 448.661C1064.38 521.173 1172.1 631.025 1045.22 602.907C882.7 566.887 656.856 511.182 520.369 511.182C357.348 511.182 2.28882e-05 591.39 2.28882e-05 591.39V741.522C2.28882e-05 741.522 364.608 500.198 520.369 511.182C747.877 527.226 762.579 738.882 990.894 741.522C1200.57 743.946 1169 522.554 1378.68 524.756C1541.51 526.466 1914 741.522 1914 741.522V478.514Z" fill="url(#paint2_linear)"/>
<path d="M231.191 179.747L185.391 319.747H150.591L119.791 224.947L87.9907 319.747H53.3907L7.39072 179.747H40.9907L72.5907 278.147L105.591 179.747H135.591L167.591 278.947L200.191 179.747H231.191ZM344.47 266.347C344.47 266.747 344.27 269.547 343.87 274.747H262.47C263.937 281.413 267.404 286.68 272.87 290.547C278.337 294.413 285.137 296.347 293.27 296.347C298.87 296.347 303.804 295.547 308.07 293.947C312.47 292.213 316.537 289.547 320.27 285.947L336.87 303.947C326.737 315.547 311.937 321.347 292.47 321.347C280.337 321.347 269.604 319.013 260.27 314.347C250.937 309.547 243.737 302.947 238.67 294.547C233.604 286.147 231.07 276.613 231.07 265.947C231.07 255.413 233.537 245.947 238.47 237.547C243.537 229.013 250.404 222.413 259.07 217.747C267.87 212.947 277.67 210.547 288.47 210.547C299.004 210.547 308.537 212.813 317.07 217.347C325.604 221.88 332.27 228.413 337.07 236.947C342.004 245.347 344.47 255.147 344.47 266.347ZM288.67 234.147C281.604 234.147 275.67 236.147 270.87 240.147C266.07 244.147 263.137 249.613 262.07 256.547H315.07C314.004 249.747 311.07 244.347 306.27 240.347C301.47 236.213 295.604 234.147 288.67 234.147ZM428.842 210.547C438.842 210.547 447.909 212.88 456.042 217.547C464.309 222.08 470.776 228.547 475.442 236.947C480.109 245.213 482.442 254.88 482.442 265.947C482.442 277.013 480.109 286.747 475.442 295.147C470.776 303.413 464.309 309.88 456.042 314.547C447.909 319.08 438.842 321.347 428.842 321.347C414.042 321.347 402.776 316.68 395.042 307.347V319.747H365.242V171.347H396.442V223.547C404.309 214.88 415.109 210.547 428.842 210.547ZM423.442 295.747C431.442 295.747 437.976 293.08 443.042 287.747C448.242 282.28 450.842 275.013 450.842 265.947C450.842 256.88 448.242 249.68 443.042 244.347C437.976 238.88 431.442 236.147 423.442 236.147C415.442 236.147 408.842 238.88 403.642 244.347C398.576 249.68 396.042 256.88 396.042 265.947C396.042 275.013 398.576 282.28 403.642 287.747C408.842 293.08 415.442 295.747 423.442 295.747ZM645.728 319.747L645.528 199.947L586.928 301.147H581.928L523.328 200.347V319.747H513.328V179.747H521.928L584.528 287.947L647.128 179.747H655.528L655.728 319.747H645.728ZM736.539 214.547C749.472 214.547 759.406 217.88 766.339 224.547C773.272 231.08 776.739 240.747 776.739 253.547V319.747H767.139V301.147C763.806 307.28 758.939 312.08 752.539 315.547C746.139 318.88 738.472 320.547 729.539 320.547C717.939 320.547 708.739 317.813 701.939 312.347C695.272 306.88 691.939 299.68 691.939 290.747C691.939 282.08 695.006 275.08 701.139 269.747C707.406 264.28 717.339 261.547 730.939 261.547H766.739V253.147C766.739 243.413 764.072 236.013 758.739 230.947C753.539 225.88 745.872 223.347 735.739 223.347C728.806 223.347 722.139 224.547 715.739 226.947C709.472 229.347 704.139 232.547 699.739 236.547L694.739 229.347C699.939 224.68 706.206 221.08 713.539 218.547C720.872 215.88 728.539 214.547 736.539 214.547ZM730.939 312.347C739.606 312.347 746.939 310.347 752.939 306.347C759.072 302.347 763.672 296.547 766.739 288.947V269.347H731.139C720.872 269.347 713.406 271.213 708.739 274.947C704.206 278.68 701.939 283.813 701.939 290.347C701.939 297.147 704.472 302.547 709.539 306.547C714.606 310.413 721.739 312.347 730.939 312.347ZM827.541 238.147C830.741 230.547 835.741 224.747 842.541 220.747C849.341 216.613 857.607 214.547 867.341 214.547V224.347L864.941 224.147C853.341 224.147 844.274 227.813 837.741 235.147C831.207 242.347 827.941 252.413 827.941 265.347V319.747H817.941V215.347H827.541V238.147ZM938.131 250.747L906.731 282.947V319.747H896.531V179.747H906.731V269.747L994.131 179.747H1006.53L944.931 243.347L1010.73 319.747H998.331L938.131 250.747Z" fill="url(#paint3_linear)"/>
<path d="M317.505 487.64C221.814 487.64 7.9751 688.868 7.9751 688.868C7.9751 688.868 170.003 611.699 296.57 624.261C368.889 631.439 412.723 729.145 469.03 741.541C611.084 772.816 778.99 575.644 868.777 592.987C1000.86 618.5 995.603 856.486 1239.61 796.272C1291.48 783.475 1492.32 673.643 1554.13 638.252C1669.83 572 1892.57 417.683 1892.57 417.683C1670.57 517.748 1467.84 668.481 1202.23 655.536C1043.81 647.815 1106.98 430.358 949.025 417.683C823.502 407.611 656.258 661.306 530.338 655.536C428.489 650.869 421.678 487.64 317.505 487.64Z" fill="url(#paint4_linear)"/>
<defs>
<linearGradient id="paint0_linear" x1="957" y1="0" x2="957" y2="743.188" gradientUnits="userSpaceOnUse">
<stop stop-color="#9FB693" stop-opacity="0"/>
<stop offset="0.384831" stop-color="#97A289"/>
<stop offset="0.808653" stop-color="#939F83"/>
<stop offset="1" stop-color="#464F41" stop-opacity="0"/>
</linearGradient>
<linearGradient id="paint1_linear" x1="1074.13" y1="350.147" x2="1072.2" y2="88.911" gradientUnits="userSpaceOnUse">
<stop stop-color="#939F83"/>
<stop offset="0.671875" stop-color="#B3BAAE"/>
</linearGradient>
<linearGradient id="paint2_linear" x1="1007.47" y1="534.382" x2="1007.94" y2="794.504" gradientUnits="userSpaceOnUse">
<stop stop-color="#9EAB8E"/>
<stop offset="1" stop-color="#C4C4C4" stop-opacity="0"/>
</linearGradient>
<linearGradient id="paint3_linear" x1="517.877" y1="125.747" x2="517.877" y2="295.262" gradientUnits="userSpaceOnUse">
<stop stop-color="#4D5748"/>
<stop offset="1" stop-color="#B3BAAE" stop-opacity="0"/>
</linearGradient>
<linearGradient id="paint4_linear" x1="962.981" y1="868.287" x2="984.073" y2="473.535" gradientUnits="userSpaceOnUse">
<stop stop-color="white"/>
<stop offset="1" stop-color="#C4C4C4" stop-opacity="0"/>
</linearGradient>
</defs>
</svg>
