<svg width="1920" height="1198" viewBox="0 0 1920 1198" fill="none" xmlns="http://www.w3.org/2000/svg">
<path d="M118.469 115C118.469 115 157.959 268.185 0 317.635V479H1917V305.737C1917 305.737 1917 328.418 1881.01 328.418C1836.02 328.418 1750.04 194.939 1750.04 194.939C1750.04 194.939 1786.03 328.418 1714.05 328.418C1642.07 328.418 1579.59 167.053 1579.59 167.053C1572.92 247.983 1545.6 350.752 1484.61 328.418C1379.84 290.047 1420.13 250.09 1407.63 194.939C1409.97 266.946 1316.16 328.418 1242.68 317.635C1117.21 299.225 1083.22 133.59 1083.22 133.59C1083.22 133.59 1013.24 361.509 955.751 341.431C909.763 325.369 785.295 133.59 785.295 133.59C785.295 133.59 842.78 317.635 729.81 348.124C673.874 363.219 661.827 194.939 661.827 194.939C661.827 194.939 663.327 328.418 564.853 341.431C502.809 349.63 394.397 125.411 394.397 125.411C394.397 125.411 405.394 328.418 276.428 305.737C227.296 297.097 118.469 115 118.469 115Z" fill="url(#paint0_linear)"/>
<path d="M1920 695.53C1920 695.53 1769.66 713.006 1659 725C1548.15 737.015 1317.72 622.261 1206.87 634.276C1077.68 648.28 1021.1 810.105 893.535 769.64C730.12 717.805 662.962 553 525.726 553C361.812 553 -4.5 695.53 -4.5 695.53V995.702L398 851L972.993 995.702L1505.5 890.5L1920 965V695.53Z" fill="url(#paint1_linear)"/>
<path d="M228.2 242L182.4 382H147.6L116.8 287.2L85 382H50.4L4.4 242H38L69.6 340.4L102.6 242H132.6L164.6 341.2L197.2 242H228.2ZM341.48 328.6C341.48 329 341.28 331.8 340.88 337H259.48C260.946 343.667 264.413 348.933 269.88 352.8C275.346 356.667 282.146 358.6 290.28 358.6C295.88 358.6 300.813 357.8 305.08 356.2C309.48 354.467 313.546 351.8 317.28 348.2L333.88 366.2C323.746 377.8 308.946 383.6 289.48 383.6C277.346 383.6 266.613 381.267 257.28 376.6C247.946 371.8 240.746 365.2 235.68 356.8C230.613 348.4 228.08 338.867 228.08 328.2C228.08 317.667 230.546 308.2 235.48 299.8C240.546 291.267 247.413 284.667 256.08 280C264.88 275.2 274.68 272.8 285.48 272.8C296.013 272.8 305.546 275.067 314.08 279.6C322.613 284.133 329.28 290.667 334.08 299.2C339.013 307.6 341.48 317.4 341.48 328.6ZM285.68 296.4C278.613 296.4 272.68 298.4 267.88 302.4C263.08 306.4 260.146 311.867 259.08 318.8H312.08C311.013 312 308.08 306.6 303.28 302.6C298.48 298.467 292.613 296.4 285.68 296.4ZM425.852 272.8C435.852 272.8 444.918 275.133 453.052 279.8C461.318 284.333 467.785 290.8 472.452 299.2C477.118 307.467 479.452 317.133 479.452 328.2C479.452 339.267 477.118 349 472.452 357.4C467.785 365.667 461.318 372.133 453.052 376.8C444.918 381.333 435.852 383.6 425.852 383.6C411.052 383.6 399.785 378.933 392.052 369.6V382H362.252V233.6H393.452V285.8C401.318 277.133 412.118 272.8 425.852 272.8ZM420.452 358C428.452 358 434.985 355.333 440.052 350C445.252 344.533 447.852 337.267 447.852 328.2C447.852 319.133 445.252 311.933 440.052 306.6C434.985 301.133 428.452 298.4 420.452 298.4C412.452 298.4 405.852 301.133 400.652 306.6C395.585 311.933 393.052 319.133 393.052 328.2C393.052 337.267 395.585 344.533 400.652 350C405.852 355.333 412.452 358 420.452 358ZM642.738 382L642.538 262.2L583.938 363.4H578.938L520.338 262.6V382H510.338V242H518.938L581.538 350.2L644.138 242H652.538L652.738 382H642.738ZM733.548 276.8C746.482 276.8 756.415 280.133 763.348 286.8C770.282 293.333 773.748 303 773.748 315.8V382H764.148V363.4C760.815 369.533 755.948 374.333 749.548 377.8C743.148 381.133 735.482 382.8 726.548 382.8C714.948 382.8 705.748 380.067 698.948 374.6C692.282 369.133 688.948 361.933 688.948 353C688.948 344.333 692.015 337.333 698.148 332C704.415 326.533 714.348 323.8 727.948 323.8H763.748V315.4C763.748 305.667 761.082 298.267 755.748 293.2C750.548 288.133 742.882 285.6 732.748 285.6C725.815 285.6 719.148 286.8 712.748 289.2C706.482 291.6 701.148 294.8 696.748 298.8L691.748 291.6C696.948 286.933 703.215 283.333 710.548 280.8C717.882 278.133 725.548 276.8 733.548 276.8ZM727.948 374.6C736.615 374.6 743.948 372.6 749.948 368.6C756.082 364.6 760.682 358.8 763.748 351.2V331.6H728.148C717.882 331.6 710.415 333.467 705.748 337.2C701.215 340.933 698.948 346.067 698.948 352.6C698.948 359.4 701.482 364.8 706.548 368.8C711.615 372.667 718.748 374.6 727.948 374.6ZM824.55 300.4C827.75 292.8 832.75 287 839.55 283C846.35 278.867 854.617 276.8 864.35 276.8V286.6L861.95 286.4C850.35 286.4 841.283 290.067 834.75 297.4C828.217 304.6 824.95 314.667 824.95 327.6V382H814.95V277.6H824.55V300.4ZM935.141 313L903.741 345.2V382H893.541V242H903.741V332L991.141 242H1003.54L941.941 305.6L1007.74 382H995.341L935.141 313Z" fill="#A01C1C"/>
<path d="M228.2 242L230.101 242.622L230.959 240H228.2V242ZM182.4 382V384H183.85L184.301 382.622L182.4 382ZM147.6 382L145.698 382.618L146.147 384H147.6V382ZM116.8 287.2L118.702 286.582L116.83 280.821L114.904 286.564L116.8 287.2ZM85 382V384H86.4386L86.8962 382.636L85 382ZM50.4 382L48.4999 382.624L48.952 384H50.4V382ZM4.4 242V240H1.63766L2.49994 242.624L4.4 242ZM38 242L39.9042 241.388L39.4583 240H38V242ZM69.6 340.4L67.6958 341.012L69.5588 346.813L71.4962 341.036L69.6 340.4ZM102.6 242V240H101.161L100.704 241.364L102.6 242ZM132.6 242L134.503 241.386L134.056 240H132.6V242ZM164.6 341.2L162.697 341.814L164.582 347.66L166.5 341.824L164.6 341.2ZM197.2 242V240H195.752L195.3 241.376L197.2 242ZM226.299 241.378L180.499 381.378L184.301 382.622L230.101 242.622L226.299 241.378ZM182.4 380H147.6V384H182.4V380ZM149.502 381.382L118.702 286.582L114.898 287.818L145.698 382.618L149.502 381.382ZM114.904 286.564L83.1038 381.364L86.8962 382.636L118.696 287.836L114.904 286.564ZM85 380H50.4V384H85V380ZM52.3001 381.376L6.30006 241.376L2.49994 242.624L48.4999 382.624L52.3001 381.376ZM4.4 244H38V240H4.4V244ZM36.0958 242.612L67.6958 341.012L71.5042 339.788L39.9042 241.388L36.0958 242.612ZM71.4962 341.036L104.496 242.636L100.704 241.364L67.7038 339.764L71.4962 341.036ZM102.6 244H132.6V240H102.6V244ZM130.697 242.614L162.697 341.814L166.503 340.586L134.503 241.386L130.697 242.614ZM166.5 341.824L199.1 242.624L195.3 241.376L162.7 340.576L166.5 341.824ZM197.2 244H228.2V240H197.2V244ZM340.88 337V339H342.732L342.874 337.153L340.88 337ZM259.48 337V335H256.992L257.526 337.43L259.48 337ZM269.88 352.8L271.035 351.167L271.035 351.167L269.88 352.8ZM305.08 356.2L305.782 358.073L305.797 358.067L305.813 358.061L305.08 356.2ZM317.28 348.2L318.75 346.844L317.364 345.341L315.891 346.76L317.28 348.2ZM333.88 366.2L335.386 367.516L336.567 366.164L335.35 364.844L333.88 366.2ZM257.28 376.6L256.365 378.379L256.375 378.384L256.385 378.389L257.28 376.6ZM235.68 356.8L233.967 357.833L233.967 357.833L235.68 356.8ZM235.48 299.8L233.76 298.779L233.755 298.787L235.48 299.8ZM256.08 280L257.028 281.761L257.037 281.756L256.08 280ZM314.08 279.6L315.018 277.834L315.018 277.834L314.08 279.6ZM334.08 299.2L332.337 300.181L332.346 300.197L332.355 300.213L334.08 299.2ZM267.88 302.4L266.599 300.864L266.599 300.864L267.88 302.4ZM259.08 318.8L257.103 318.496L256.748 320.8H259.08V318.8ZM312.08 318.8V320.8H314.418L314.056 318.49L312.08 318.8ZM303.28 302.6L301.975 304.116L301.987 304.126L301.999 304.136L303.28 302.6ZM339.48 328.6C339.48 328.594 339.479 328.636 339.473 328.763C339.467 328.876 339.458 329.029 339.446 329.225C339.422 329.617 339.385 330.16 339.335 330.858C339.235 332.252 339.085 334.248 338.886 336.847L342.874 337.153C343.268 332.027 343.48 329.101 343.48 328.6H339.48ZM340.88 335H259.48V339H340.88V335ZM257.526 337.43C259.098 344.572 262.843 350.272 268.725 354.433L271.035 351.167C265.983 347.594 262.795 342.761 261.433 336.57L257.526 337.43ZM268.725 354.433C274.596 358.586 281.823 360.6 290.28 360.6V356.6C282.47 356.6 276.097 354.748 271.035 351.167L268.725 354.433ZM290.28 360.6C296.066 360.6 301.246 359.774 305.782 358.073L304.377 354.327C300.38 355.826 295.693 356.6 290.28 356.6V360.6ZM305.813 358.061C310.479 356.222 314.764 353.404 318.668 349.64L315.891 346.76C312.328 350.196 308.48 352.711 304.347 354.339L305.813 358.061ZM315.809 349.556L332.409 367.556L335.35 364.844L318.75 346.844L315.809 349.556ZM332.373 364.884C322.716 375.94 308.533 381.6 289.48 381.6V385.6C309.36 385.6 324.777 379.66 335.386 367.516L332.373 364.884ZM289.48 381.6C277.606 381.6 267.188 379.318 258.174 374.811L256.385 378.389C266.038 383.215 277.086 385.6 289.48 385.6V381.6ZM258.194 374.821C249.167 370.179 242.254 363.827 237.392 355.767L233.967 357.833C239.239 366.573 246.726 373.421 256.365 378.379L258.194 374.821ZM237.392 355.767C232.53 347.706 230.08 338.535 230.08 328.2H226.08C226.08 339.198 228.696 349.094 233.967 357.833L237.392 355.767ZM230.08 328.2C230.08 317.993 232.466 308.881 237.204 300.813L233.755 298.787C228.627 307.519 226.08 317.34 226.08 328.2H230.08ZM237.199 300.821C242.082 292.597 248.684 286.254 257.028 281.761L255.131 278.239C246.143 283.079 239.01 289.936 233.76 298.779L237.199 300.821ZM257.037 281.756C265.521 277.128 274.988 274.8 285.48 274.8V270.8C274.372 270.8 264.238 273.272 255.122 278.244L257.037 281.756ZM285.48 274.8C295.716 274.8 304.922 277 313.141 281.366L315.018 277.834C306.17 273.133 296.31 270.8 285.48 270.8V274.8ZM313.141 281.366C321.332 285.718 327.722 291.976 332.337 300.181L335.823 298.219C330.838 289.357 323.894 282.549 315.018 277.834L313.141 281.366ZM332.355 300.213C337.083 308.262 339.48 317.702 339.48 328.6H343.48C343.48 317.098 340.944 306.938 335.804 298.187L332.355 300.213ZM285.68 294.4C278.21 294.4 271.806 296.525 266.599 300.864L269.16 303.936C273.554 300.275 279.016 298.4 285.68 298.4V294.4ZM266.599 300.864C261.378 305.214 258.234 311.144 257.103 318.496L261.056 319.104C262.059 312.589 264.781 307.586 269.16 303.936L266.599 300.864ZM259.08 320.8H312.08V316.8H259.08V320.8ZM314.056 318.49C312.922 311.263 309.772 305.407 304.56 301.064L301.999 304.136C306.387 307.793 309.104 312.737 310.104 319.11L314.056 318.49ZM304.585 301.084C299.386 296.608 293.043 294.4 285.68 294.4V298.4C292.183 298.4 297.573 300.325 301.975 304.116L304.585 301.084ZM453.052 279.8L452.056 281.535L452.073 281.544L452.09 281.554L453.052 279.8ZM472.452 299.2L470.703 300.171L470.71 300.183L472.452 299.2ZM472.452 357.4L474.193 358.383L474.2 358.371L472.452 357.4ZM453.052 376.8L454.025 378.547L454.035 378.542L453.052 376.8ZM392.052 369.6L393.592 368.324L390.052 364.051V369.6H392.052ZM392.052 382V384H394.052V382H392.052ZM362.252 382H360.252V384H362.252V382ZM362.252 233.6V231.6H360.252V233.6H362.252ZM393.452 233.6H395.452V231.6H393.452V233.6ZM393.452 285.8H391.452V290.979L394.932 287.144L393.452 285.8ZM440.052 350L438.602 348.622L438.602 348.622L440.052 350ZM440.052 306.6L438.585 307.96L438.602 307.978L438.62 307.996L440.052 306.6ZM400.652 306.6L399.202 305.222L399.202 305.223L400.652 306.6ZM400.652 350L399.185 351.36L399.202 351.378L399.22 351.396L400.652 350ZM425.852 274.8C435.526 274.8 444.246 277.053 452.056 281.535L454.047 278.065C445.59 273.213 436.177 270.8 425.852 270.8V274.8ZM452.09 281.554C460.019 285.902 466.216 292.094 470.703 300.171L474.2 298.229C469.354 289.506 462.617 282.765 454.013 278.046L452.09 281.554ZM470.71 300.183C475.181 308.103 477.452 317.42 477.452 328.2H481.452C481.452 316.846 479.055 306.83 474.193 298.217L470.71 300.183ZM477.452 328.2C477.452 338.979 475.181 348.368 470.703 356.429L474.2 358.371C479.055 349.632 481.452 339.554 481.452 328.2H477.452ZM470.71 356.417C466.222 364.366 460.018 370.571 452.068 375.058L454.035 378.542C462.619 373.696 469.348 366.967 474.193 358.383L470.71 356.417ZM452.078 375.053C444.264 379.408 435.537 381.6 425.852 381.6V385.6C436.166 385.6 445.572 383.258 454.025 378.547L452.078 375.053ZM425.852 381.6C411.503 381.6 400.861 377.098 393.592 368.324L390.512 370.876C398.708 380.769 410.601 385.6 425.852 385.6V381.6ZM390.052 369.6V382H394.052V369.6H390.052ZM392.052 380H362.252V384H392.052V380ZM364.252 382V233.6H360.252V382H364.252ZM362.252 235.6H393.452V231.6H362.252V235.6ZM391.452 233.6V285.8H395.452V233.6H391.452ZM394.932 287.144C402.354 278.968 412.575 274.8 425.852 274.8V270.8C411.661 270.8 400.283 275.298 391.971 284.456L394.932 287.144ZM420.452 360C428.946 360 436.022 357.145 441.502 351.377L438.602 348.622C433.948 353.521 427.957 356 420.452 356V360ZM441.501 351.378C447.123 345.467 449.852 337.67 449.852 328.2H445.852C445.852 336.863 443.38 343.599 438.602 348.622L441.501 351.378ZM449.852 328.2C449.852 318.732 447.124 310.989 441.484 305.204L438.62 307.996C443.379 312.878 445.852 319.535 445.852 328.2H449.852ZM441.518 305.24C436.043 299.333 428.963 296.4 420.452 296.4V300.4C427.94 300.4 433.927 302.934 438.585 307.96L441.518 305.24ZM420.452 296.4C411.941 296.4 404.805 299.332 399.202 305.222L402.101 307.978C406.898 302.935 412.962 300.4 420.452 300.4V296.4ZM399.202 305.223C393.704 311.01 391.052 318.746 391.052 328.2H395.052C395.052 319.521 397.466 312.857 402.102 307.977L399.202 305.223ZM391.052 328.2C391.052 337.656 393.704 345.447 399.185 351.36L402.118 348.64C397.465 343.62 395.052 336.877 395.052 328.2H391.052ZM399.22 351.396C404.826 357.146 411.957 360 420.452 360V356C412.946 356 406.877 353.52 402.084 348.604L399.22 351.396ZM642.738 382L640.738 382.003L640.741 384H642.738V382ZM642.538 262.2L644.538 262.197L644.525 254.776L640.807 261.198L642.538 262.2ZM583.938 363.4V365.4H585.091L585.668 364.402L583.938 363.4ZM578.938 363.4L577.208 364.405L577.787 365.4H578.938V363.4ZM520.338 262.6L522.067 261.595L518.338 255.18V262.6H520.338ZM520.338 382V384H522.338V382H520.338ZM510.338 382H508.338V384H510.338V382ZM510.338 242V240H508.338V242H510.338ZM518.938 242L520.669 240.998L520.091 240H518.938V242ZM581.538 350.2L579.806 351.202L581.538 354.194L583.269 351.202L581.538 350.2ZM644.138 242V240H642.984L642.406 240.998L644.138 242ZM652.538 242L654.538 241.997L654.535 240H652.538V242ZM652.738 382V384H654.74L654.738 381.997L652.738 382ZM644.738 381.997L644.538 262.197L640.538 262.203L640.738 382.003L644.738 381.997ZM640.807 261.198L582.207 362.398L585.668 364.402L644.268 263.202L640.807 261.198ZM583.938 361.4H578.938V365.4H583.938V361.4ZM580.667 362.395L522.067 261.595L518.608 263.605L577.208 364.405L580.667 362.395ZM518.338 262.6V382H522.338V262.6H518.338ZM520.338 380H510.338V384H520.338V380ZM512.338 382V242H508.338V382H512.338ZM510.338 244H518.938V240H510.338V244ZM517.206 243.002L579.806 351.202L583.269 349.198L520.669 240.998L517.206 243.002ZM583.269 351.202L645.869 243.002L642.406 240.998L579.806 349.198L583.269 351.202ZM644.138 244H652.538V240H644.138V244ZM650.538 242.003L650.738 382.003L654.738 381.997L654.538 241.997L650.538 242.003ZM652.738 380H642.738V384H652.738V380ZM763.348 286.8L761.962 288.242L761.969 288.249L761.977 288.256L763.348 286.8ZM773.748 382V384H775.748V382H773.748ZM764.148 382H762.148V384H764.148V382ZM764.148 363.4H766.148L762.391 362.445L764.148 363.4ZM749.548 377.8L750.472 379.574L750.487 379.566L750.501 379.559L749.548 377.8ZM698.948 374.6L697.68 376.147L697.688 376.153L697.695 376.159L698.948 374.6ZM698.148 332L699.461 333.509L699.463 333.507L698.148 332ZM763.748 323.8V325.8H765.748V323.8H763.748ZM755.748 293.2L754.353 294.632L754.362 294.641L754.371 294.65L755.748 293.2ZM712.748 289.2L712.046 287.327L712.033 287.332L712.748 289.2ZM696.748 298.8L695.106 299.941L696.406 301.814L698.094 300.28L696.748 298.8ZM691.748 291.6L690.413 290.112L689.099 291.291L690.106 292.741L691.748 291.6ZM710.548 280.8L711.201 282.69L711.217 282.685L711.232 282.68L710.548 280.8ZM749.948 368.6L748.856 366.925L748.847 366.93L748.839 366.936L749.948 368.6ZM763.748 351.2L765.603 351.948L765.748 351.588V351.2H763.748ZM763.748 331.6H765.748V329.6H763.748V331.6ZM705.748 337.2L704.499 335.638L704.488 335.647L704.477 335.656L705.748 337.2ZM706.548 368.8L705.309 370.37L705.322 370.38L705.335 370.39L706.548 368.8ZM733.548 278.8C746.147 278.8 755.515 282.042 761.962 288.242L764.735 285.358C757.315 278.224 746.816 274.8 733.548 274.8V278.8ZM761.977 288.256C768.385 294.294 771.748 303.354 771.748 315.8H775.748C775.748 302.646 772.178 292.372 764.72 285.344L761.977 288.256ZM771.748 315.8V382H775.748V315.8H771.748ZM773.748 380H764.148V384H773.748V380ZM766.148 382V363.4H762.148V382H766.148ZM762.391 362.445C759.251 368.223 754.671 372.751 748.596 376.041L750.501 379.559C757.226 375.916 762.379 370.843 765.906 364.355L762.391 362.445ZM748.625 376.026C742.57 379.18 735.235 380.8 726.548 380.8V384.8C735.728 384.8 743.727 383.087 750.472 379.574L748.625 376.026ZM726.548 380.8C715.254 380.8 706.544 378.14 700.202 373.041L697.695 376.159C704.952 381.993 714.643 384.8 726.548 384.8V380.8ZM700.217 373.053C694.032 367.982 690.948 361.359 690.948 353H686.948C686.948 362.507 690.531 370.284 697.68 376.147L700.217 373.053ZM690.948 353C690.948 344.869 693.796 338.435 699.461 333.509L696.836 330.491C690.234 336.232 686.948 343.798 686.948 353H690.948ZM699.463 333.507C705.196 328.506 714.545 325.8 727.948 325.8V321.8C714.152 321.8 703.635 324.56 696.834 330.493L699.463 333.507ZM727.948 325.8H763.748V321.8H727.948V325.8ZM765.748 323.8V315.4H761.748V323.8H765.748ZM765.748 315.4C765.748 305.303 762.973 297.305 757.126 291.75L754.371 294.65C759.19 299.228 761.748 306.03 761.748 315.4H765.748ZM757.144 291.768C751.444 286.213 743.194 283.6 732.748 283.6V287.6C742.569 287.6 749.653 290.053 754.353 294.632L757.144 291.768ZM732.748 283.6C725.579 283.6 718.674 284.842 712.046 287.327L713.451 291.073C719.623 288.758 726.051 287.6 732.748 287.6V283.6ZM712.033 287.332C705.564 289.81 700.009 293.133 695.403 297.32L698.094 300.28C702.288 296.467 707.4 293.39 713.464 291.068L712.033 287.332ZM698.391 297.659L693.391 290.459L690.106 292.741L695.106 299.941L698.391 297.659ZM693.084 293.088C698.065 288.619 704.092 285.146 711.201 282.69L709.895 278.91C702.338 281.52 695.832 285.248 690.413 290.112L693.084 293.088ZM711.232 282.68C718.341 280.095 725.776 278.8 733.548 278.8V274.8C725.321 274.8 717.423 276.172 709.865 278.92L711.232 282.68ZM727.948 376.6C736.929 376.6 744.668 374.524 751.058 370.264L748.839 366.936C743.229 370.676 736.301 372.6 727.948 372.6V376.6ZM751.041 370.275C757.557 366.025 762.402 359.881 765.603 351.948L761.894 350.452C758.961 357.719 754.606 363.175 748.856 366.925L751.041 370.275ZM765.748 351.2V331.6H761.748V351.2H765.748ZM763.748 329.6H728.148V333.6H763.748V329.6ZM728.148 329.6C717.723 329.6 709.697 331.48 704.499 335.638L706.998 338.762C711.133 335.454 718.041 333.6 728.148 333.6V329.6ZM704.477 335.656C699.427 339.815 696.948 345.545 696.948 352.6H700.948C700.948 346.588 703.004 342.051 707.02 338.744L704.477 335.656ZM696.948 352.6C696.948 359.974 699.733 365.968 705.309 370.37L707.788 367.23C703.23 363.632 700.948 358.826 700.948 352.6H696.948ZM705.335 370.39C710.875 374.618 718.498 376.6 727.948 376.6V372.6C718.999 372.6 712.355 370.716 707.762 367.21L705.335 370.39ZM824.55 300.4H822.55L826.393 301.176L824.55 300.4ZM839.55 283L840.564 284.724L840.576 284.717L840.589 284.709L839.55 283ZM864.35 276.8H866.35V274.8H864.35V276.8ZM864.35 286.6L864.184 288.593L866.35 288.774V286.6H864.35ZM861.95 286.4L862.116 284.407L862.033 284.4H861.95V286.4ZM834.75 297.4L836.231 298.744L836.237 298.737L836.243 298.73L834.75 297.4ZM824.95 382V384H826.95V382H824.95ZM814.95 382H812.95V384H814.95V382ZM814.95 277.6V275.6H812.95V277.6H814.95ZM824.55 277.6H826.55V275.6H824.55V277.6ZM826.393 301.176C829.434 293.954 834.153 288.495 840.564 284.724L838.536 281.276C831.347 285.505 826.066 291.646 822.707 299.624L826.393 301.176ZM840.589 284.709C847.013 280.804 854.901 278.8 864.35 278.8V274.8C854.332 274.8 845.687 276.929 838.511 281.291L840.589 284.709ZM862.35 276.8V286.6H866.35V276.8H862.35ZM864.516 284.607L862.116 284.407L861.784 288.393L864.184 288.593L864.516 284.607ZM861.95 284.4C849.893 284.4 840.239 288.232 833.257 296.07L836.243 298.73C842.328 291.901 850.807 288.4 861.95 288.4V284.4ZM833.269 296.056C826.304 303.731 822.95 314.337 822.95 327.6H826.95C826.95 314.996 830.129 305.469 836.231 298.744L833.269 296.056ZM822.95 327.6V382H826.95V327.6H822.95ZM824.95 380H814.95V384H824.95V380ZM816.95 382V277.6H812.95V382H816.95ZM814.95 279.6H824.55V275.6H814.95V279.6ZM822.55 277.6V300.4H826.55V277.6H822.55ZM935.141 313L936.648 311.685L935.222 310.051L933.709 311.604L935.141 313ZM903.741 345.2L902.309 343.804L901.741 344.386V345.2H903.741ZM903.741 382V384H905.741V382H903.741ZM893.541 382H891.541V384H893.541V382ZM893.541 242V240H891.541V242H893.541ZM903.741 242H905.741V240H903.741V242ZM903.741 332H901.741V336.93L905.175 333.393L903.741 332ZM991.141 242V240H990.295L989.706 240.607L991.141 242ZM1003.54 242L1004.98 243.391L1008.26 240H1003.54V242ZM941.941 305.6L940.504 304.209L939.233 305.521L940.425 306.905L941.941 305.6ZM1007.74 382V384H1012.1L1009.26 380.695L1007.74 382ZM995.341 382L993.834 383.315L994.431 384H995.341V382ZM933.709 311.604L902.309 343.804L905.173 346.596L936.573 314.396L933.709 311.604ZM901.741 345.2V382H905.741V345.2H901.741ZM903.741 380H893.541V384H903.741V380ZM895.541 382V242H891.541V382H895.541ZM893.541 244H903.741V240H893.541V244ZM901.741 242V332H905.741V242H901.741ZM905.175 333.393L992.575 243.393L989.706 240.607L902.306 330.607L905.175 333.393ZM991.141 244H1003.54V240H991.141V244ZM1002.1 240.609L940.504 304.209L943.377 306.991L1004.98 243.391L1002.1 240.609ZM940.425 306.905L1006.23 383.305L1009.26 380.695L943.456 304.295L940.425 306.905ZM1007.74 380H995.341V384H1007.74V380ZM996.848 380.685L936.648 311.685L933.634 314.315L993.834 383.315L996.848 380.685Z" fill="url(#paint2_linear)"/>
<rect width="1920" height="1198" fill="url(#paint3_linear)"/>
<defs>
<linearGradient id="paint0_linear" x1="958.5" y1="115" x2="958.5" y2="479" gradientUnits="userSpaceOnUse">
<stop stop-color="#A39E9E" stop-opacity="0.37"/>
<stop offset="1" stop-color="#DB9C9C"/>
</linearGradient>
<linearGradient id="paint1_linear" x1="1008.5" y1="775.929" x2="1009.47" y2="1150.27" gradientUnits="userSpaceOnUse">
<stop stop-color="#A01C1C"/>
<stop offset="1" stop-color="#C4C4C4" stop-opacity="0"/>
</linearGradient>
<linearGradient id="paint2_linear" x1="516.5" y1="188" x2="516.5" y2="479.5" gradientUnits="userSpaceOnUse">
<stop stop-color="#B67070" stop-opacity="0"/>
<stop offset="1" stop-color="#482A2A"/>
</linearGradient>
<linearGradient id="paint3_linear" x1="960" y1="0" x2="960" y2="1198" gradientUnits="userSpaceOnUse">
<stop stop-color="#CACACA" stop-opacity="0"/>
<stop offset="0.302083" stop-color="#A01C1C"/>
<stop offset="0.671875" stop-color="#A01C1C"/>
<stop offset="1" stop-color="#C4C4C4" stop-opacity="0"/>
</linearGradient>
</defs>
</svg>
