<svg width="661" height="513" viewBox="0 0 661 513" fill="none" xmlns="http://www.w3.org/2000/svg">
<g clip-path="url(#clip0)">
<path opacity="0.4" d="M447.904 318.721C475.174 318.721 497.28 293.396 497.28 262.155C497.28 230.914 475.174 205.588 447.904 205.588C420.635 205.588 398.529 230.914 398.529 262.155C398.529 293.396 420.635 318.721 447.904 318.721Z" fill="#ACB698"/>
<path d="M449.031 340.425H173.694V425.918H449.031V340.425Z" fill="#3F3D56"/>
<path d="M431.396 128.612L420.402 134.573L430.132 126.238C428.551 123.41 426.774 120.731 424.82 118.228L377.139 131.806L420.208 112.984C418.24 110.994 416.15 109.169 413.954 107.522L341.301 120.929C333.587 131.98 329.382 145.708 329.376 159.858H438.739C438.734 148.884 436.201 138.106 431.396 128.612Z" fill="#F2F2F2"/>
<path d="M440.104 36.9943C396.402 12.5747 348.406 -0.0788739 299.783 2.70248e-07C200.823 2.70248e-07 112.347 51.4082 53.5812 132.181C154.212 106.921 329.419 63.1933 440.104 36.9943Z" fill="#F2F2F2"/>
<path d="M656.178 511.41H0V512.884H656.178V511.41Z" fill="#2F2E41"/>
<path d="M383.326 159.858L346.102 96.512C346.102 96.512 402.476 119.059 396.078 159.858H383.326Z" fill="#3F3D56"/>
<path d="M384.788 159.858L422.012 96.512C422.012 96.512 365.638 119.059 372.036 159.858H384.788Z" fill="#ACB698"/>
<path d="M449.353 512.884H173.372V41.2001H449.353V512.884ZM174.659 511.41H448.066V42.6741H174.659V511.41Z" fill="#2F2E41"/>
<path d="M449.031 52.3887H174.337V53.8627H449.031V52.3887Z" fill="#2F2E41"/>
<path d="M181.414 50.0442C182.835 50.0442 183.987 48.7243 183.987 47.0962C183.987 45.468 182.835 44.1481 181.414 44.1481C179.993 44.1481 178.841 45.468 178.841 47.0962C178.841 48.7243 179.993 50.0442 181.414 50.0442Z" fill="#ACB698"/>
<path d="M188.49 50.0442C189.911 50.0442 191.063 48.7243 191.063 47.0962C191.063 45.468 189.911 44.1481 188.49 44.1481C187.069 44.1481 185.917 45.468 185.917 47.0962C185.917 48.7243 187.069 50.0442 188.49 50.0442Z" fill="#ACB698"/>
<path d="M195.567 50.0442C196.988 50.0442 198.14 48.7243 198.14 47.0962C198.14 45.468 196.988 44.1481 195.567 44.1481C194.146 44.1481 192.994 45.468 192.994 47.0962C192.994 48.7243 194.146 50.0442 195.567 50.0442Z" fill="#ACB698"/>
<path d="M195.567 62.5733H183.987V69.9434H195.567V62.5733Z" fill="#ACB698"/>
<path d="M240.598 120.797H183.987V128.167H240.598V120.797Z" fill="#ACB698"/>
<path d="M385.344 69.9434L441.955 69.9434V62.5733L385.344 62.5733V69.9434Z" fill="#F2F2F2"/>
<path d="M279.197 133.326H183.987V137.748H279.197V133.326Z" fill="#F2F2F2"/>
<path d="M274.051 142.907H183.987V147.329H274.051V142.907Z" fill="#F2F2F2"/>
<path d="M249.605 152.488H183.987V156.91H249.605V152.488Z" fill="#F2F2F2"/>
<path d="M243.172 283.675H205.86V288.097H243.172V283.675Z" fill="#F2F2F2"/>
<path d="M241.155 293.256H205.86V297.678H241.155V293.256Z" fill="#F2F2F2"/>
<path d="M231.575 302.837H205.86V307.259H231.575V302.837Z" fill="#F2F2F2"/>
<path d="M330.019 283.675H292.707V288.097H330.019V283.675Z" fill="#F2F2F2"/>
<path d="M328.002 293.256H292.707V297.678H328.002V293.256Z" fill="#F2F2F2"/>
<path d="M318.422 302.837H292.707V307.259H318.422V302.837Z" fill="#F2F2F2"/>
<path d="M420.082 283.675H382.77V288.097H420.082V283.675Z" fill="#F2F2F2"/>
<path d="M418.066 293.256H382.77V297.678H418.066V293.256Z" fill="#F2F2F2"/>
<path d="M408.485 302.837H382.77V307.259H408.485V302.837Z" fill="#F2F2F2"/>
<path d="M320.369 450.976H263.758V458.346H320.369V450.976Z" fill="#ACB698"/>
<path d="M358.968 463.505H263.758V467.927H358.968V463.505Z" fill="#F2F2F2"/>
<path d="M353.821 473.086H263.758V477.508H353.821V473.086Z" fill="#F2F2F2"/>
<path d="M329.376 482.667H263.758V487.089H329.376V482.667Z" fill="#F2F2F2"/>
<path opacity="0.3" d="M424.907 200.394H201.035V201.868H424.907V200.394Z" fill="#ACB698"/>
<path opacity="0.3" d="M248.318 226.189H200.713V274.831H248.318V226.189Z" fill="#ACB698"/>
<path d="M335.165 226.189H287.56V274.831H335.165V226.189Z" fill="#3F3D56"/>
<path d="M425.229 226.189H377.624V274.831H425.229V226.189Z" fill="#3F3D56"/>
<path d="M305.16 274.627L304.532 274.613C304.546 273.816 304.938 255.037 311.391 249.846L311.752 250.435C305.559 255.416 305.163 274.435 305.16 274.627Z" fill="#ACB698"/>
<path d="M314.712 249.609C316.446 249.609 317.852 247.998 317.852 246.011C317.852 244.024 316.446 242.414 314.712 242.414C312.978 242.414 311.572 244.024 311.572 246.011C311.572 247.998 312.978 249.609 314.712 249.609Z" fill="#ACB698"/>
<path d="M314.077 258.714C312.444 259.302 310.704 259.388 309.033 258.964C310.094 257.416 311.523 256.252 313.149 255.613C314.774 254.975 316.526 254.888 318.193 255.364C317.101 256.874 315.682 258.03 314.077 258.714Z" fill="#ACB698"/>
<path d="M395.224 274.627L394.596 274.613C394.61 273.816 395.002 255.037 401.455 249.846L401.816 250.435C395.623 255.416 395.227 274.435 395.224 274.627Z" fill="#ACB698"/>
<path d="M404.776 249.609C406.51 249.609 407.916 247.998 407.916 246.011C407.916 244.024 406.51 242.414 404.776 242.414C403.041 242.414 401.635 244.024 401.635 246.011C401.635 247.998 403.041 249.609 404.776 249.609Z" fill="#ACB698"/>
<path d="M404.141 258.714C402.507 259.302 400.768 259.388 399.096 258.964C400.158 257.416 401.587 256.252 403.212 255.613C404.838 254.975 406.59 254.888 408.257 255.364C407.165 256.874 405.745 258.03 404.141 258.714V258.714Z" fill="#ACB698"/>
<path d="M240.598 367.694H183.987V375.064H240.598V367.694Z" fill="#ACB698"/>
<path d="M279.197 380.223H183.987V384.645H279.197V380.223Z" fill="#F2F2F2"/>
<path d="M274.051 389.804H183.987V394.226H274.051V389.804Z" fill="#F2F2F2"/>
<path d="M249.605 399.385H183.987V403.807H249.605V399.385Z" fill="#F2F2F2"/>
<path opacity="0.4" d="M393.547 400.895C404.649 400.895 413.649 390.584 413.649 377.865C413.649 365.145 404.649 354.835 393.547 354.835C382.445 354.835 373.445 365.145 373.445 377.865C373.445 390.584 382.445 400.895 393.547 400.895Z" fill="#ACB698"/>
<path opacity="0.4" d="M356.343 405.019C364.131 405.019 370.445 397.786 370.445 388.864C370.445 379.942 364.131 372.709 356.343 372.709C348.555 372.709 342.242 379.942 342.242 388.864C342.242 397.786 348.555 405.019 356.343 405.019Z" fill="#ACB698"/>
<path d="M107.755 487.458C135.823 487.458 158.576 461.39 158.576 429.234C158.576 397.078 135.823 371.011 107.755 371.011C79.6867 371.011 56.9331 397.078 56.9331 429.234C56.9331 461.39 79.6867 487.458 107.755 487.458Z" fill="#2F2E41"/>
<path d="M100.035 474.929H84.5955V506.62H100.035V474.929Z" fill="#2F2E41"/>
<path d="M130.914 474.929H115.474V506.62H130.914V474.929Z" fill="#2F2E41"/>
<path d="M97.4617 512.516C104.568 512.516 110.328 510.041 110.328 506.988C110.328 503.936 104.568 501.461 97.4617 501.461C90.3559 501.461 84.5955 503.936 84.5955 506.988C84.5955 510.041 90.3559 512.516 97.4617 512.516Z" fill="#2F2E41"/>
<path d="M128.341 511.779C135.446 511.779 141.207 509.304 141.207 506.251C141.207 503.199 135.446 500.724 128.341 500.724C121.235 500.724 115.474 503.199 115.474 506.251C115.474 509.304 121.235 511.779 128.341 511.779Z" fill="#2F2E41"/>
<path d="M109.041 434.393C118.634 434.393 126.411 425.484 126.411 414.494C126.411 403.504 118.634 394.595 109.041 394.595C99.4484 394.595 91.6719 403.504 91.6719 414.494C91.6719 425.484 99.4484 434.393 109.041 434.393Z" fill="white"/>
<path d="M109.041 412.283C112.239 412.283 114.831 409.313 114.831 405.65C114.831 401.987 112.239 399.017 109.041 399.017C105.844 399.017 103.251 401.987 103.251 405.65C103.251 409.313 105.844 412.283 109.041 412.283Z" fill="#3F3D56"/>
<path d="M58.4559 375.088C54.3523 354.033 67.4699 332.759 87.7549 327.57C108.04 322.38 127.811 335.242 131.914 356.296C136.018 377.351 122.574 385.116 102.289 390.305C82.0044 395.494 62.5595 396.142 58.4559 375.088Z" fill="#ACB698"/>
<path d="M153.444 368.659C159.358 354.079 160.913 340.535 156.918 338.408C152.922 336.281 144.889 346.376 138.975 360.957C133.061 375.538 131.506 389.082 135.501 391.209C139.497 393.336 147.53 383.24 153.444 368.659Z" fill="#2F2E41"/>
<path d="M64.8172 408.226C68.7111 405.865 66.5453 392.431 59.9798 378.221C53.4144 364.011 44.9354 354.405 41.0415 356.767C37.1477 359.128 39.3135 372.562 45.8789 386.772C52.4444 400.982 60.9234 410.587 64.8172 408.226Z" fill="#2F2E41"/>
<path d="M536.656 413.099C540.767 411.284 540.008 397.651 534.961 382.648C529.914 367.646 522.49 356.956 518.379 358.771C514.268 360.587 515.027 374.22 520.074 389.222C525.121 404.224 532.545 414.914 536.656 413.099Z" fill="#2F2E41"/>
<path d="M574.599 487.975C602.667 487.975 625.421 461.907 625.421 429.751C625.421 397.595 602.667 371.528 574.599 371.528C546.531 371.528 523.778 397.595 523.778 429.751C523.778 461.907 546.531 487.975 574.599 487.975Z" fill="#2F2E41"/>
<path d="M582.506 507.109L597.946 507.06L597.868 475.368L582.429 475.418L582.506 507.109Z" fill="#2F2E41"/>
<path d="M551.629 507.211L567.069 507.162L566.991 475.47L551.552 475.52L551.629 507.211Z" fill="#2F2E41"/>
<path d="M585.096 513C592.202 512.977 597.956 510.484 597.949 507.431C597.941 504.378 592.175 501.922 585.069 501.945C577.963 501.968 572.209 504.461 572.216 507.514C572.224 510.566 577.99 513.023 585.096 513Z" fill="#2F2E41"/>
<path d="M554.215 512.362C561.321 512.339 567.075 509.846 567.068 506.793C567.06 503.74 561.294 501.284 554.188 501.307C547.082 501.33 541.328 503.823 541.336 506.876C541.343 509.928 547.109 512.385 554.215 512.362Z" fill="#2F2E41"/>
<path d="M573.277 434.915C582.869 434.915 590.646 426.006 590.646 415.015C590.646 404.025 582.869 395.116 573.277 395.116C563.684 395.116 555.907 404.025 555.907 415.015C555.907 426.006 563.684 434.915 573.277 434.915Z" fill="white"/>
<path d="M573.277 421.649C576.474 421.649 579.066 418.679 579.066 415.016C579.066 411.352 576.474 408.382 573.277 408.382C570.079 408.382 567.487 411.352 567.487 415.016C567.487 418.679 570.079 421.649 573.277 421.649Z" fill="#3F3D56"/>
<path d="M623.765 375.447C627.817 354.38 614.648 333.147 594.35 328.023C574.053 322.899 554.313 335.824 550.261 356.891C546.209 377.959 559.672 385.681 579.969 390.805C600.267 395.929 619.713 396.515 623.765 375.447Z" fill="#ACB698"/>
<path d="M635.214 410.798C647.877 403.868 656.603 394.557 654.704 390.003C652.805 385.449 641 387.375 628.336 394.305C615.673 401.236 606.947 410.546 608.846 415.101C610.745 419.655 622.55 417.729 635.214 410.798Z" fill="#2F2E41"/>
<path d="M599.614 450.676C599.628 456.374 586.848 467.668 572.636 467.714C558.425 467.759 545.061 451.759 545.047 446.06C545.033 440.362 558.374 447.123 572.586 447.078C586.798 447.032 599.6 444.977 599.614 450.676Z" fill="white"/>
<path opacity="0.4" d="M590.076 426.69C629.246 426.69 661 390.311 661 345.436C661 300.561 629.246 264.183 590.076 264.183C550.906 264.183 519.152 300.561 519.152 345.436C519.152 390.311 550.906 426.69 590.076 426.69Z" fill="#ACB698"/>
<path d="M122.49 315.137C150.558 315.137 173.311 289.069 173.311 256.913C173.311 224.757 150.558 198.69 122.49 198.69C94.4217 198.69 71.6681 224.757 71.6681 256.913C71.6681 289.069 94.4217 315.137 122.49 315.137Z" fill="#2F2E41"/>
<path d="M107.788 300.301L92.5959 297.151L87.6684 328.335L102.861 331.486L107.788 300.301Z" fill="#2F2E41"/>
<path d="M138.174 306.603L122.981 303.452L118.053 334.637L133.246 337.788L138.174 306.603Z" fill="#2F2E41"/>
<path d="M138.117 349.658C139.84 347.329 136.84 341.175 131.417 335.914C125.995 330.653 120.203 328.276 118.481 330.606C116.759 332.936 119.758 339.089 125.181 344.35C130.604 349.611 136.395 351.988 138.117 349.658Z" fill="#2F2E41"/>
<path d="M108.365 343.488C110.088 341.158 107.088 335.005 101.665 329.744C96.2427 324.482 90.4509 322.106 88.7287 324.436C87.0066 326.765 90.0064 332.919 95.4289 338.18C100.851 343.441 106.643 345.817 108.365 343.488Z" fill="#2F2E41"/>
<path d="M126.048 262.571C135.64 262.571 143.417 253.662 143.417 242.672C143.417 231.682 135.64 222.772 126.048 222.772C116.455 222.772 108.678 231.682 108.678 242.672C108.678 253.662 116.455 262.571 126.048 262.571Z" fill="white"/>
<path d="M133.186 242.172C136.384 242.172 138.976 239.202 138.976 235.539C138.976 231.875 136.384 228.906 133.186 228.906C129.989 228.906 127.396 231.875 127.396 235.539C127.396 239.202 129.989 242.172 133.186 242.172Z" fill="#3F3D56"/>
<path d="M82.3985 193.572C81.6342 172.017 97.85 153.76 118.617 152.793C139.385 151.827 156.84 168.517 157.604 190.073C158.368 211.628 143.932 216.525 123.165 217.492C102.397 218.458 83.1628 215.128 82.3985 193.572Z" fill="#ACB698"/>
<path d="M171.199 255.214C184.878 251.622 195.169 244.722 194.185 239.802C193.201 234.882 181.313 233.806 167.634 237.398C153.955 240.99 143.664 247.89 144.648 252.81C145.632 257.73 157.519 258.806 171.199 255.214Z" fill="#2F2E41"/>
<path d="M71.4377 274.22C85.1169 270.628 95.4082 263.728 94.4239 258.808C93.4395 253.888 81.5523 252.812 67.8731 256.404C54.1938 259.996 43.9026 266.897 44.8869 271.817C45.8712 276.736 57.7584 277.813 71.4377 274.22Z" fill="#2F2E41"/>
<path d="M108.531 279.858C107.984 283.321 108.66 286.89 110.41 289.781C112.16 292.672 114.841 294.649 117.863 295.276C120.885 295.902 124.001 295.128 126.524 293.123C129.048 291.118 130.773 288.047 131.32 284.585C132.459 277.375 127.594 274.824 121.301 273.519C115.008 272.214 109.671 272.649 108.531 279.858Z" fill="white"/>
<path d="M242.154 209.617L196.554 193.956L184.361 240.549L229.961 256.211L242.154 209.617Z" fill="#3F3D56"/>
<path d="M201.271 246.144L200.673 245.924C200.886 245.165 205.969 227.306 213.452 224.457L213.649 225.14C206.469 227.874 201.322 245.961 201.271 246.144Z" fill="#ACB698"/>
<path d="M217.594 225.473C219.328 225.473 220.734 223.863 220.734 221.876C220.734 219.889 219.328 218.278 217.594 218.278C215.859 218.278 214.453 219.889 214.453 221.876C214.453 223.863 215.859 225.473 217.594 225.473Z" fill="#ACB698"/>
<path d="M213.801 233.835C212.089 233.86 210.402 233.371 208.907 232.414C210.311 231.281 211.972 230.636 213.689 230.559C215.406 230.482 217.106 230.976 218.584 231.98C217.159 233.067 215.51 233.707 213.801 233.835V233.835Z" fill="#ACB698"/>
</g>
<defs>
<clipPath id="clip0">
<rect width="661" height="513" fill="white"/>
</clipPath>
</defs>
</svg>
