<svg width="109" height="45" viewBox="0 0 109 45" fill="none" xmlns="http://www.w3.org/2000/svg">
<circle cx="32" cy="19" r="3" fill="#482A2A"/>
<path d="M31.771 23.6C32.2417 23.6 33.1647 24.2456 31.8236 29.7189C30.1247 36.6521 25.5335 44.8669 14.8307 44.8669C-4.32133 44.8669 -3.41438 5.775 8.96544 11.4254C19.131 16.0651 -4.32133 36.6966 14.8307 36.6966C24.2202 36.6966 28.165 33.2056 29.9286 29.434C31.7622 25.5125 31.3003 23.6 31.771 23.6Z" fill="#A01C1C"/>
<path d="M32.2417 23.5999C31.5617 22.8036 30.3353 24.2456 31.6765 29.7189C33.3754 36.6521 37.9665 44.8669 48.6694 44.8669C67.8214 44.8669 45.0545 -10.7679 40.0002 1.86694C38 6.86694 67.8214 36.6965 48.6694 36.6965C39.2799 36.6965 35.3351 33.2056 33.5715 29.434C31.7378 25.5125 33.0273 24.5201 32.2417 23.5999Z" fill="#482A2A"/>
<path d="M76.4394 21.267C75.9687 21.267 75.0457 20.6213 76.3869 15.148C78.0858 8.21486 82.6769 0 93.3797 0C112.532 0 111.625 39.0919 99.245 33.4416C89.0794 28.8019 112.532 8.17039 93.3797 8.17039C83.9903 8.17039 80.0454 11.6613 78.2819 15.433C76.4482 19.3545 76.9101 21.267 76.4394 21.267Z" fill="#A01C1C"/>
<path d="M75.9688 21.267C76.6487 22.0633 77.8751 20.6214 76.534 15.1481C74.8351 8.21487 70.2439 0 59.5411 0C40.3891 0 63.1559 55.6349 68.2103 43C70.2104 38 40.3891 8.1704 59.5411 8.1704C68.9306 8.1704 72.8754 11.6613 74.639 15.433C76.4726 19.3545 75.1832 20.3469 75.9688 21.267Z" fill="#482A2A"/>
<circle cx="76.2104" cy="25.8669" r="3" transform="rotate(-180 76.2104 25.8669)" fill="#482A2A"/>
</svg>
